<svg xmlns="http://www.w3.org/2000/svg" viewBox="0 0 48 48"><path fill-rule="evenodd" d="M48 24c0 13.3-10.8 24-24 24S0 37.2 0 24 10.8 0 24 0s24 10.8 24 24z" clip-rule="evenodd"/><path fill="#fff" d="M30 35h-3c-.3 0-.5-.2-.5-.5s.2-.5.5-.5h3c.3 0 .5-.2.5-.5s-.2-.5-.5-.5h-1c-.3 0-.5-.2-.5-.5s.2-.5.5-.5h1c.8 0 1.5.7 1.5 1.5S30.8 35 30 35z"/><path fill="#fff" d="M29 33h-1c-.8 0-1.5-.7-1.5-1.5S27.2 30 28 30h3c.3 0 .5.2.5.5s-.2.5-.5.5h-3c-.3 0-.5.2-.5.5s.2.5.5.5h1c.3 0 .5.2.5.5s-.2.5-.5.5z"/><path fill="#fff" d="M29 31c-.3 0-.5-.2-.5-.5v-1c0-.3.2-.5.5-.5s.5.2.5.5v1c0 .3-.2.5-.5.5zM29 36c-.3 0-.5-.2-.5-.5v-1c0-.3.2-.5.5-.5s.5.2.5.5v1c0 .3-.2.5-.5.5z"/><path fill="#fff" d="M33 40H14c-1.4 0-2.5-1.1-2.5-2.5v-24c0-1.4 1.1-2.5 2.5-2.5h5c.3 0 .5.2.5.5s-.2.5-.5.5h-5c-.8 0-1.5.7-1.5 1.5v24c0 .8.7 1.5 1.5 1.5h19c.8 0 1.5-.7 1.5-1.5v-24c0-.8-.7-1.5-1.5-1.5h-5c-.3 0-.5-.2-.5-.5s.2-.5.5-.5h5c1.4 0 2.5 1.1 2.5 2.5v24c0 1.4-1.1 2.5-2.5 2.5z"/><path fill="#fff" d="M33 38H14c-.3 0-.5-.2-.5-.5v-24c0-.3.2-.5.5-.5h3c.3 0 .5.2.5.5s-.2.5-.5.5h-2.5v23h18V14H30c-.3 0-.5-.2-.5-.5s.2-.5.5-.5h3c.3 0 .5.2.5.5v24c0 .3-.2.5-.5.5z"/><path fill="#fff" d="M28 14h-9c-.3 0-.5-.2-.5-.5v-3c0-.3.2-.5.5-.5h2.5c0-1.1.9-2 2-2s2 .9 2 2H28c.3 0 .5.2.5.5v3c0 .3-.2.5-.5.5zm-8.5-1h8v-2h-2.6c-.2 0-.3-.1-.4-.2-.1-.1-.1-.3-.1-.5 0-.1.1-.2.1-.3 0-.6-.4-1-1-1s-1 .4-1 1c0 .1 0 .2.1.3.1.2 0 .3-.1.5-.1.1-.2.2-.4.2h-2.6v2zM22 22h-6c-.3 0-.5-.2-.5-.5v-6c0-.3.2-.5.5-.5h6c.3 0 .5.2.5.5v6c0 .3-.2.5-.5.5zm-5.5-1h5v-5h-5v5zM29 22h-5c-.3 0-.5-.2-.5-.5s.2-.5.5-.5h5c.3 0 .5.2.5.5s-.2.5-.5.5zM28 18h-4c-.3 0-.5-.2-.5-.5s.2-.5.5-.5h4c.3 0 .5.2.5.5s-.2.5-.5.5zM31 18h-1c-.3 0-.5-.2-.5-.5s.2-.5.5-.5h1c.3 0 .5.2.5.5s-.2.5-.5.5zM31 28H18c-.3 0-.5-.2-.5-.5s.2-.5.5-.5h13c.3 0 .5.2.5.5s-.2.5-.5.5zM16 28h-.2c-.1 0-.1-.1-.2-.1-.1-.1-.1-.2-.1-.3s0-.3.1-.4c0 0 .1-.1.2-.1.2-.1.4 0 .5.1.1.1.2.2.2.4s-.1.3-.2.3c0 0-.1.1-.2.1H16zM25 30h-7c-.3 0-.5-.2-.5-.5s.2-.5.5-.5h7c.3 0 .5.2.5.5s-.2.5-.5.5zM16 30h-.2c-.1 0-.1-.1-.2-.1s-.1-.1-.1-.2v-.2-.2c0-.1.1-.1.1-.2.2-.1.4-.1.6-.1.1 0 .1.1.2.1s.1.1.1.2v.4c0 .1-.1.1-.1.2-.1.1-.3.1-.4.1zM25 32h-7c-.3 0-.5-.2-.5-.5s.2-.5.5-.5h7c.3 0 .5.2.5.5s-.2.5-.5.5zM16 32h-.2c-.1 0-.1-.1-.2-.1-.1-.1-.1-.2-.1-.3s0-.3.1-.4c.2-.2.4-.2.6-.2.1 0 .1.1.2.1s.1.1.1.2v.2c0 .1-.1.3-.2.3 0 0-.1.1-.2.1 0 .1 0 .1-.1.1zM31 20h-7c-.3 0-.5-.2-.5-.5s.2-.5.5-.5h7c.3 0 .5.2.5.5s-.2.5-.5.5zM31 26H16c-.3 0-.5-.2-.5-.5v-2c0-.3.2-.5.5-.5h15c.3 0 .5.2.5.5v2c0 .3-.2.5-.5.5zm-14.5-1h14v-1h-14v1zM25 36h-9c-.3 0-.5-.2-.5-.5v-2c0-.3.2-.5.5-.5h9c.3 0 .5.2.5.5v2c0 .3-.2.5-.5.5zm-8.5-1h8v-1h-8v1zM31 16h-7c-.3 0-.5-.2-.5-.5s.2-.5.5-.5h7c.3 0 .5.2.5.5s-.2.5-.5.5z"/></svg>